<svg width="90" height="90" fill="none" xmlns="http://www.w3.org/2000/svg"><path d="M0 3h3.929C5.076 3 6 4.338 6 5.982v12.627c0 1.643-.933 2.981-2.08 2.981H0V3z" fill="#9D6C3E"/><path d="M0 3h3.604c.833 0 1.507 1.134 1.507 2.536v8.396c0 1.402-.674 2.536-1.507 2.536H0V3z" fill="#CA9350"/><path d="M90 21.59h-3.923c-1.145 0-2.077-1.338-2.077-2.982V5.982C84 4.338 84.932 3 86.077 3H90v18.59z" fill="#9D6C3E"/><path d="M90 16.468h-3.599c-.832 0-1.504-1.134-1.504-2.536V5.536C84.897 4.134 85.569 3 86.4 3H90v13.468zM84 8H6v4h78V8z" fill="#CA9350"/><path d="M84 12H6v4h78v-4z" fill="#9D6C3E"/><path d="M72.558 8h-4.284a9.105 9.105 0 0 1 0 8h4.284V8zM17.452 8h4.283a9.105 9.105 0 0 0 0 8h-4.283V8z" fill="#9D6C3E"/><path d="M12 5a3 3 0 0 0-3 3v74.812c0 3.145 2.869 5.51 5.956 4.908L45 81.868V21.044l-26-1.888V8a3 3 0 0 0-3-3h-4z" fill="#81B64C"/><path d="m45 81.868 30.044 5.852C78.131 88.32 81 85.957 81 82.812V8a3 3 0 0 0-3-3h-4a3 3 0 0 0-3 3v11.156l-26 1.888v60.824z" fill="#5D9948"/><path d="m71 22-25.918 1.834L19 22v55.16l26.082-4.303L71 77.16V22z" fill="#5D9948"/><path d="m71 22-26 1.834v49.023l26 4.303V22z" fill="#45753C"/><path fill-rule="evenodd" clip-rule="evenodd" d="M45 66h14v-.648c0-4.859-2.325-6.623-4.743-8.458-2.42-1.837-4.933-3.744-5.305-8.894h3.709c.507-.936.58-1.98.58-3.024L49.329 42.6c1.774-1.404 2.68-3.636 2.68-5.652 0-3.816-3.115-6.912-6.99-6.948H45v36z" fill="#D8FA9D"/><path fill-rule="evenodd" clip-rule="evenodd" d="M45.115 30.002V66H31v-.648c0-4.859 2.325-6.623 4.743-8.458 2.42-1.837 4.933-3.744 5.305-8.894h-3.71c-.506-.936-.579-1.98-.579-3.024l3.912-2.376c-1.774-1.404-2.68-3.636-2.68-5.652 0-3.816 3.115-6.912 7.027-6.948.032 0 .065 0 .097.002z" fill="#F3FFCF"/><path d="M9 77v5.838c0 3.137 2.854 5.499 5.935 4.912L45 82.027V80.34l-30.557 5.978a4 4 0 0 1-4.74-3.45L9 77z" fill="#5D9948"/><path d="M81 77v5.838c0 3.137-2.854 5.499-5.935 4.912L45 82.027V80.34l30.557 5.978a4 4 0 0 0 4.74-3.45L81 77z" fill="#45753C"/><path d="M9 8a3 3 0 0 1 3-3h2.73a7.733 7.733 0 0 0-4.03 6.459L9 50.785V8z" fill="#B2E068"/><path d="M81 8a3 3 0 0 0-3-3h-1.73a9.798 9.798 0 0 1 3.054 6.832L81 70.785V8z" fill="#81B64C"/></svg>