<svg width="90" height="90" fill="none" xmlns="http://www.w3.org/2000/svg"><g clip-path="url(#a)" fill-rule="evenodd" clip-rule="evenodd"><path d="M28.023 59.973c.626 13.896 14.255 25 30.977 25 2.78 0 5.474-.307 8.037-.882 5.9 3.757 13.325 6.185 20.563 5.884V86c-2.852-2.334-5.644-4.829-7.374-8.077 5.747-4.53 9.433-10.878 9.752-17.95H90v-4h-.204c-1.774-12.946-14.885-23-30.796-23s-29.022 10.054-30.796 23H28v4h.023z" fill="#749BBF"/><path d="M59 80.973c-17.12 0-31-11.64-31-26s13.88-26 31-26c17.12 0 31 11.64 31 26 0 7.792-4.087 14.784-10.56 19.549 1.568 4.432 4.806 8.72 8.16 11.453-7.238.301-14.663-2.127-20.563-5.884a36.688 36.688 0 0 1-8.037.882z" fill="#D0E6FB"/><path d="M42.883 77.188C33.958 72.623 28 64.382 28 54.973c0-14.36 13.88-26 31-26 17.12 0 31 11.64 31 26 0 .357-.009.712-.025 1.065-1.985-7.93-7.623-15.522-16.045-20.385-14.827-8.56-32.667-5.419-39.847 7.017-6.3 10.914-2.297 25.359 8.8 34.518z" fill="#FAFFFF"/><path d="M37.73 73.887C58.547 72.572 75 56.324 75 36.473c0-1.31-.071-2.604-.211-3.88-4.625-2.3-10.023-3.62-15.789-3.62-17.12 0-31 11.64-31 26 0 7.453 3.739 14.174 9.73 18.914z" fill="#AED0F0"/><path d="M72 35c0 17.12-16.118 31-36 31-3.95 0-7.751-.548-11.307-1.56-6.33 4.15-14.416 6.288-22.293 5.96v-4l.006-.005c3.335-2.73 6.593-5.394 8.345-9.298C4.115 51.474 0 43.651 0 35v-4h.297C2.576 15.769 17.692 4 36 4c18.308 0 33.424 11.769 35.703 27H72v4z" fill="#749BBF"/><path d="M36 62c19.882 0 36-13.88 36-31C72 13.88 55.882 0 36 0S0 13.88 0 31c0 8.943 4.398 17.002 11.433 22.66C9.97 58.735 6.257 63.258 2.4 66.4c7.877.328 15.963-1.81 22.293-5.96A41.294 41.294 0 0 0 36 62z" fill="#D0E6FB"/><path d="M70.347 21.686c2.6 13.37-4.631 28.384-18.747 36.534a41.817 41.817 0 0 1-4.691 2.331C61.459 56.572 72 44.846 72 31c0-3.245-.58-6.374-1.653-9.314zM1.508 39.907A27.038 27.038 0 0 1 0 31C0 16.28 11.914 3.956 27.892.79A41.427 41.427 0 0 0 20.4 4.18C6.567 12.166-.654 26.746 1.508 39.907z" fill="#FAFFFF"/></g><defs><clipPath id="a"><path fill="#fff" d="M0 0h90v90H0z"/></clipPath></defs></svg>