<svg width="90" height="90" fill="none" xmlns="http://www.w3.org/2000/svg"><path d="M45 86c22.644 0 41-18.356 41-41S67.644 4 45 4 4 22.356 4 45s18.356 41 41 41z" fill="#008CD1"/><path fill-rule="evenodd" clip-rule="evenodd" d="M28.536 76.83c21.216 0 38.415-17.2 38.415-38.416 0-15.073-8.682-28.119-21.317-34.41C45.423 4.003 45.212 4 45 4 22.356 4 4 22.356 4 45c0 11.91 5.079 22.635 13.189 30.125a38.407 38.407 0 0 0 11.347 1.704z" fill="#4DC3EA"/><path fill-rule="evenodd" clip-rule="evenodd" d="M42 85c22.644 0 41-18.356 41-41 0-17.552-11.029-32.528-26.535-38.375C73.53 10.585 86 26.336 86 45c0 22.644-18.356 41-41 41a40.91 40.91 0 0 1-14.465-2.625A41.018 41.018 0 0 0 42 85z" fill="#009FD9"/><path fill-rule="evenodd" clip-rule="evenodd" d="M75.038 17.094c.334.36.662.726.984 1.098l.016.348c.1 2.177.213 4.595-2.53 4.663.025-.487 0-1.035-.027-1.6-.087-1.879-.182-3.937 1.557-4.509zm4.673 6.075a40.768 40.768 0 0 1 5.133 12.122c-.297-.29-.588-.623-.88-.957-.727-.834-1.456-1.67-2.28-1.823-1.657-.306-2.522.931-3.394 2.18-.965 1.382-1.94 2.777-4.01 2.113-1.996-.641-2.6-3.481-1.852-5.243.09-.208 2.498-2.616 2.717-2.712.361-.156.862-.203 1.38-.25.875-.08 1.796-.165 2.165-.796.269-.46.245-1.035.218-1.663-.031-.742-.066-1.557.38-2.335.135-.235.276-.446.423-.636zm6.168 18.665-3.03-2.33-9.802.21-5.355 5.508-.074 9.514c-.004.268.128.468.262.671.042.064.084.127.122.193.25.433 6.673 6.86 7.132 7.069.803.363 2.585.289 4.325.216.878-.037 1.745-.074 2.47-.053A40.837 40.837 0 0 0 86 45c0-1.066-.04-2.121-.12-3.166zM34.537 84.653c-.058-1.592-.021-3.015.338-3.806L50.346 64.99c.31-2.568.454-7.33-2.327-8.579-.598-.267-1.238-.241-1.877-.216-.638.026-1.276.05-1.871-.216-.653-.295-1.673-1.472-2.71-2.67-1.143-1.32-2.307-2.664-3.024-2.877l-8.05-.304c-.686-.487-1.56-1.45-2.495-2.476-1.555-1.71-3.273-3.6-4.547-3.77-.294-.04-.646.014-1.012.069-.924.139-1.936.29-2.314-.998-.294-.998-.315-4.532.502-5.178.755-.594 2.796-.492 4.85-.39 1.806.09 3.623.18 4.583-.203l15.269-15.246c-.027-3.251-2.418-3.239-4.636-3.227-.878.004-1.73.008-2.395-.19-.421-.124-.774-.516-1.146-.928-.632-.701-1.318-1.462-2.486-1.075l.001-.02-.005.021.004-.001-.394 4.395c-.539.379-5.114.31-5.867-.032-1.148-.518-4.201-3.839-3.56-5.205.236-.508.72-.97 1.192-1.42 1.273-1.212 2.452-2.335-1.588-4.042l-1.155.002C14.296 15.838 7.642 24.852 5.114 35.465c1.208 1.153 2.814 2.873 4.474 4.652 3.196 3.425 6.595 7.067 7.744 7.288.68.132 1.482.071 2.287.01.933-.07 1.87-.14 2.63.087.347.106 3.294 2.946 3.443 3.267.453.98-.56 1.92-1.612 2.9-.823.764-1.671 1.553-1.863 2.4-.438 1.933-.342 7.528.747 9.103.455.657 1.357 1.462 2.29 2.295 1.301 1.162 2.664 2.378 2.953 3.32l.189 11.71a40.7 40.7 0 0 0 6.141 2.155zm-5.58-77.395c.01 1.226 1.577 2.845 2.364 3.2.875.396 6.897.439 7.335-.17 1.137-.94-1.885-3.79-2.12-3.79h-5.66c-.648.237-1.288.49-1.92.76zM56.15 5.534c-3.06-.042-7.6.079-8.359.514-.208.123-2.83 2.77-2.915 2.958-.446.962.856 2.22 2.15 3.473.968.934 1.93 1.865 2.159 2.666.168.596.134 1.306.1 2.028-.052 1.087-.106 2.199.53 2.985l.005-.006c.54.668 2.733 2.424 3.625 2.013.566-.256 8.494-8.221 8.803-8.76 1.008-1.757.783-4.117-.365-5.778a40.699 40.699 0 0 0-5.733-2.093zm15.682 14.748-.182 2.114-2.322.39c-.24-1.783.683-2.744 2.504-2.504z" fill="#81B64C"/><path fill-rule="evenodd" clip-rule="evenodd" d="m34.66 16.517-.003.001.005-.021-.002.02zm-.393 4.395.393-4.395c1.168-.387 1.855.374 2.487 1.075.372.412.724.803 1.145.928.666.198 1.517.194 2.395.19 2.218-.012 4.61-.024 4.636 3.227L30.055 37.183c-.96.383-2.777.292-4.584.203-2.054-.102-4.094-.204-4.85.39-.817.646-.795 4.18-.502 5.178.379 1.289 1.39 1.137 2.314.998.366-.055.718-.108 1.012-.069 1.274.17 2.993 2.06 4.548 3.77.934 1.027 1.809 1.99 2.494 2.476l8.05.304c.717.213 1.882 1.557 3.025 2.877 1.037 1.198 2.057 2.375 2.71 2.67.595.267 1.233.242 1.871.216.639-.025 1.278-.05 1.876.216 2.782 1.25 2.637 6.011 2.328 8.58l-9.628 9.865a38.376 38.376 0 0 1-12.414 1.972l-.098-6.04c-.289-.943-1.651-2.159-2.953-3.321-.933-.833-1.835-1.638-2.29-2.295-1.088-1.575-1.184-7.17-.746-9.102.192-.848 1.04-1.637 1.863-2.402 1.052-.979 2.064-1.92 1.612-2.9-.15-.32-3.097-3.16-3.444-3.267-.759-.226-1.697-.156-2.63-.085-.805.06-1.606.12-2.286-.01-1.15-.222-4.548-3.864-7.745-7.289-1.66-1.779-3.266-3.5-4.473-4.652 2.527-10.614 9.182-19.627 18.173-25.252h1.156c4.04 1.705 2.86 2.829 1.587 4.042-.471.449-.956.91-1.192 1.418-.64 1.367 2.413 4.688 3.56 5.206.753.341 5.329.41 5.868.032zm-5.31-13.654c.01 1.226 1.578 2.844 2.364 3.2.876.396 6.898.438 7.335-.17 1.138-.94-1.884-3.79-2.119-3.79h-5.66c-.648.237-1.288.49-1.92.76zm20.328 9.915c-.052 1.087-.105 2.199.53 2.985l.006-.006c.539.668 2.733 2.424 3.625 2.013.368-.167 3.85-3.594 6.325-6.119A38.62 38.62 0 0 0 48.84 5.797c-.505.069-.875.152-1.048.251-.208.123-2.83 2.77-2.915 2.958-.446.962.856 2.22 2.15 3.472.967.935 1.93 1.866 2.158 2.667.168.596.135 1.306.1 2.028z" fill="#B2E068"/><path fill-rule="evenodd" clip-rule="evenodd" d="M46 4.012C23.82 4.542 6 22.69 6 45s17.818 40.457 40 40.988c-.333.008-.666.012-1 .012C22.356 86 4 67.644 4 45S22.356 4 45 4c.334 0 .668.004 1 .012z" fill="#83DEFC"/><path fill-rule="evenodd" clip-rule="evenodd" d="M34.521 84.066a40.745 40.745 0 0 1-6.14-2.528l.016.96a40.691 40.691 0 0 0 6.141 2.155 34.598 34.598 0 0 1-.017-.587zM23.288 10.214C14.296 15.838 7.642 24.852 5.114 35.466c.49.467 1.046 1.028 1.644 1.648 2.18-11.188 8.909-20.75 18.184-26.681a16.77 16.77 0 0 0-.498-.22l-1.156.001zm5.67-2.956c.001.26.074.54.195.82a40.746 40.746 0 0 1 3.723-1.58h-2a40.71 40.71 0 0 0-1.919.76z" fill="#D8FA9D"/></svg>