<svg width="90" height="90" fill="none" xmlns="http://www.w3.org/2000/svg"><g clip-path="url(#a)"><path d="M5 79a8 8 0 0 0 8 8h48.03a12 12 0 0 0 8.485-3.515l11.97-11.97A12 12 0 0 0 85 63.029V15a8 8 0 0 0-8-8H13a8 8 0 0 0-8 8v64z" fill="#BEBDB9"/><path d="M5 75a8 8 0 0 0 8 8h48.686a8 8 0 0 0 5.657-2.343l15.314-15.314A8 8 0 0 0 85 59.686V13a8 8 0 0 0-8-8H13a8 8 0 0 0-8 8v62z" fill="#E7E6E5"/><path d="M5 55V13a8 8 0 0 1 8-8h62L14.448 6.78a8 8 0 0 0-7.758 7.664L5 55z" fill="#F8F8F8"/><path d="m62 83-2.711-11.947c-1.086-4.781 2.347-9.405 7.238-9.75L85 60a6.689 6.689 0 0 1-1.96 4.73L66.73 81.04a6.688 6.688 0 0 1-4.73 1.96z" fill="#DAD8D6"/><path d="M62 83V68a8 8 0 0 1 8-8h15a6.689 6.689 0 0 1-1.959 4.73L66.73 81.04a6.689 6.689 0 0 1-4.73 1.96z" fill="#F1F1F1"/><path d="M62 83V68a8 8 0 0 1 8-8h15l-14.318 1.694a8 8 0 0 0-7.006 7.013L62 83z" fill="#fff"/><path fill-rule="evenodd" clip-rule="evenodd" d="M73 17H42v8h31v-8zm0 16H42v8h31v-8zM17 49h56v8H17v-8zm15 16H17v8h12l3-8zm42.505-37.504 4.108-4.108 6.256 6.256-4.108 4.108-6.256-6.256z" fill="#BEBDB9"/><path d="m29 73 4.76-2.51L85 21v20.96L46.43 73H29z" fill="#BEBDB9"/><path fill-rule="evenodd" clip-rule="evenodd" d="M73 51.617 66.31 57H47.727l8.283-8H73v2.617z" fill="#8B8987"/><path d="M17 41h9.771c5.932 0 9.052-2.571 9.052-6.617 0-2.743-1.372-4.697-3.6-5.692 1.817-1.028 2.948-2.845 2.948-5.211 0-3.874-2.982-6.48-8.742-6.48H17v24zm5.52-4.697v-5.246h3.703c2.571 0 4.08.754 4.08 2.537 0 1.852-1.509 2.709-4.08 2.709H22.52zm0-9.497v-5.109h3.189c2.468 0 3.942.857 3.942 2.606 0 1.748-1.508 2.503-3.942 2.503H22.52z" fill="#666564"/><path d="m38.768 63.232-6.26-6.26L29 73l16.027-3.508-6.26-6.26z" fill="#FADAAE"/><path d="M38.768 63.232 29 73l16.027-3.508-6.26-6.26z" fill="#E3C29C"/><path d="M70.29 19.194 32.508 56.976l12.519 12.52 37.782-37.782-12.52-12.52z" fill="#F7C631"/><path d="M76.551 25.448 38.77 63.23l6.257 6.256 37.781-37.782-6.256-6.256z" fill="#CF8D1B"/><path d="M84.876 29.643a1743.86 1743.86 0 0 1 4.367-4.357 2.74 2.74 0 0 0 .43-.562 2.634 2.634 0 0 0-.04-2.608 2.78 2.78 0 0 0-.41-.522l-8.827-8.827a2.567 2.567 0 0 0-.665-.48c-.092-.042-.194-.093-.286-.123a2.635 2.635 0 0 0-.89-.164c-.44 0-.88.113-1.268.338a2.542 2.542 0 0 0-.573.43 1761.017 1761.017 0 0 1-4.367 4.356l12.519 12.52h.01z" fill="#FF8A75"/><path d="m78.616 23.384 6.26 6.26c1.452-1.453 2.904-2.905 4.367-4.358a2.74 2.74 0 0 0 .43-.562 2.636 2.636 0 0 0 .113-2.311 2.055 2.055 0 0 0-.154-.297 2.78 2.78 0 0 0-.41-.522l-4.397-4.398" fill="#FF6352"/><path d="m72.354 17.126-4.108 4.108 12.52 12.52 4.107-4.108-12.519-12.52z" fill="#fff"/><path d="m78.613 23.388-4.108 4.108 6.256 6.256 4.108-4.108-6.256-6.256z" fill="#E7E6E5"/></g><defs><clipPath id="a"><path fill="#fff" d="M0 0h90v90H0z"/></clipPath></defs></svg>