<svg width="90" height="90" fill="none" xmlns="http://www.w3.org/2000/svg"><path d="M5 79a8 8 0 0 0 8 8h48.03a12 12 0 0 0 8.485-3.515l11.97-11.97A12 12 0 0 0 85 63.029V15a8 8 0 0 0-8-8H13a8 8 0 0 0-8 8v64z" fill="#BEBDB9"/><path d="M5 75a8 8 0 0 0 8 8h48.686a8 8 0 0 0 5.657-2.343l15.314-15.314A8 8 0 0 0 85 59.686V13a8 8 0 0 0-8-8H13a8 8 0 0 0-8 8v62z" fill="#E7E6E5"/><path d="M5 55V13a8 8 0 0 1 8-8h62L14.448 6.78a8 8 0 0 0-7.758 7.664L5 55z" fill="#F8F8F8"/><path d="M62 83V68a8 8 0 0 1 8-8h15a6.689 6.689 0 0 1-1.959 4.73L66.73 81.04a6.689 6.689 0 0 1-4.73 1.96z" fill="#F1F1F1"/><path d="M62 83V68a8 8 0 0 1 8-8h15l-14.318 1.694a8 8 0 0 0-7.006 7.013L62 83z" fill="#fff"/><path d="M72.604 32H49v8h23.604v-8zM72.604 48H49v8h23.604v-8z" fill="#B3ACA8"/><path d="M73 16H17v8h56v-8z" fill="#E02828"/><path d="M73 64H17v8h56v-8z" fill="#B3ACA8"/><path d="M41 32H17v24h24V32z" fill="#666564"/><path d="M23.316 40.202C23.316 35.833 26.401 34 29 34s5.684 1.833 5.684 6.202c0 2.632-.891 4.232-1.6 5.503-.468.84-.857 1.537-.857 2.294 0 1.486 1.27 1.771 2.782 2.111C37.239 50.611 40 51.232 40 56H18c0-4.768 2.76-5.389 4.991-5.89 1.513-.34 2.782-.625 2.782-2.111 0-.757-.389-1.454-.857-2.294-.709-1.271-1.6-2.87-1.6-5.503z" fill="#8B8987"/><path d="M5 55V13a8 8 0 0 1 8-8h62L14.448 6.78a8 8 0 0 0-7.758 7.664L5 55z" fill="#F8F8F8"/><path d="M62 83V68a8 8 0 0 1 8-8h15a6.689 6.689 0 0 1-1.959 4.73L66.73 81.04a6.689 6.689 0 0 1-4.73 1.96z" fill="#F1F1F1"/><path d="M62 83V68a8 8 0 0 1 8-8h15l-14.318 1.694a8 8 0 0 0-7.006 7.013L62 83z" fill="#fff"/></svg>