<svg width="90" height="90" fill="none" xmlns="http://www.w3.org/2000/svg"><path d="M68.422 85.222H21.578v-1.088c0-8.157 3.89-11.12 7.935-14.201 4.049-3.084 8.253-6.287 8.876-14.933h-6.206c-.849-1.572-.97-3.324-.97-5.077l6.545-3.99c-2.97-2.357-4.484-6.105-4.484-9.49 0-6.407 5.211-11.605 11.756-11.665 6.485.06 11.696 5.258 11.696 11.666 0 3.384-1.515 7.132-4.484 9.49l6.545 3.989c0 1.753-.121 3.505-.97 5.077h-6.206c.622 8.646 4.828 11.849 8.876 14.933 4.046 3.081 7.935 6.044 7.935 14.201v1.088z" fill="#81B64C"/><path fill-rule="evenodd" clip-rule="evenodd" d="M51.611 55H38.955c.857.897 1.708 1.808 2.559 2.72 6.466 6.924 12.978 13.9 22.76 15.382-1.159-1.168-2.465-2.162-3.787-3.17C56.438 66.85 52.233 63.647 51.61 55zM48.998 25.49c4.099 2.556 7.282 9.924 3.534 15.236-2.81 3.973-8.287 5.207-8.287 5.207h7.997c2.97-2.357 4.484-6.105 4.484-9.49 0-5.029-3.21-9.313-7.728-10.952z" fill="#5D9948"/><path fill-rule="evenodd" clip-rule="evenodd" d="M21.578 84.134v1.088c2.056-6.795 5.064-8.976 10.137-12.655.37-.268.75-.543 1.142-.83 3.234-2.366 3.888-6.82 4.316-10.813-1.669 4.445-4.706 6.759-7.66 9.009-4.046 3.081-7.935 6.044-7.935 14.201z" fill="#B2E068"/><path fill-rule="evenodd" clip-rule="evenodd" d="M38.389 55h19.428c.849-1.572.97-3.324.97-5.077l-6.545-3.99h-1.34a.99.99 0 0 0 .023.021c.373.333 4.818 4.308.12 7.346h-19.51c.145.584.353 1.153.648 1.7h6.206z" fill="#5D9948"/><path fill-rule="evenodd" clip-rule="evenodd" d="M31.218 50.466c-.003-.181-.005-.362-.005-.543l6.545-3.99-1.425 4.526-5.115.007zM33.683 39.545a12.258 12.258 0 0 1-.41-3.101c0-6.232 4.93-11.32 11.222-11.65l.155-.001h.143c-4.025.49-10.181 5.204-11.11 14.752z" fill="#B2E068"/><path fill-rule="evenodd" clip-rule="evenodd" d="M24.636 7.491C7.755 19.353 3.113 42.246 14.312 58.413c1.14 1.646.53 3.784-1.363 4.775-1.892.992-4.35.461-5.49-1.185C-5.801 42.86-.381 16.125 19.609 2.08c1.718-1.207 4.236-.974 5.625.52 1.388 1.494 1.12 3.685-.598 4.892z" fill="#81B64C"/><path fill-rule="evenodd" clip-rule="evenodd" d="M32.464 18.037c-10.83 7.628-13.826 22.406-6.649 32.795 1.138 1.646.525 3.784-1.368 4.773-1.894.99-4.351.457-5.49-1.19C9.728 41.053 13.5 22.44 27.43 12.63c1.716-1.209 4.235-.979 5.626.515 1.39 1.493 1.125 3.683-.592 4.892z" fill="#81B64C"/><path fill-rule="evenodd" clip-rule="evenodd" d="M21.578 2.381a4.334 4.334 0 0 1 2.203-.762c-1.335-.528-2.954-.395-4.172.46-19.99 14.046-25.41 40.78-12.15 59.924.808 1.167 2.278 1.773 3.74 1.674a3.855 3.855 0 0 1-1.77-1.372c-13.26-19.144-7.84-45.878 12.15-59.924zM29.4 12.932a4.333 4.333 0 0 1 2.206-.765c-1.336-.528-2.957-.394-4.175.463-13.93 9.81-17.704 28.423-8.472 41.785.807 1.168 2.279 1.776 3.742 1.677a3.854 3.854 0 0 1-1.773-1.375c-9.23-13.362-5.457-31.974 8.472-41.785z" fill="#B2E068"/><path fill-rule="evenodd" clip-rule="evenodd" d="M65.364 7.491c16.88 11.862 21.522 34.755 10.324 50.922-1.14 1.646-.53 3.784 1.362 4.775 1.893.992 4.351.461 5.49-1.185C95.8 42.86 90.38 16.125 70.392 2.08c-1.718-1.207-4.237-.974-5.625.52s-1.12 3.685.597 4.892z" fill="#81B64C"/><path fill-rule="evenodd" clip-rule="evenodd" d="M57.535 18.037c10.83 7.628 13.827 22.406 6.65 32.795-1.138 1.646-.525 3.784 1.368 4.773 1.894.99 4.351.457 5.49-1.19C80.272 41.053 76.5 22.44 62.57 12.63c-1.717-1.209-4.235-.979-5.626.514-1.39 1.494-1.125 3.684.591 4.893z" fill="#81B64C"/><path fill-rule="evenodd" clip-rule="evenodd" d="M68.421 2.381a4.334 4.334 0 0 0-2.202-.762c1.335-.528 2.954-.395 4.172.46 19.989 14.046 25.41 40.78 12.15 59.924-.808 1.167-2.278 1.773-3.74 1.674a3.854 3.854 0 0 0 1.77-1.372c13.26-19.144 7.84-45.878-12.15-59.924zm-7.82 10.551a4.333 4.333 0 0 0-2.206-.765c1.335-.528 2.957-.394 4.175.463 13.93 9.81 17.703 28.423 8.472 41.785-.807 1.168-2.279 1.776-3.742 1.677.713-.281 1.339-.747 1.772-1.375 9.232-13.362 5.458-31.974-8.472-41.785z" fill="#B2E068"/></svg>