<svg width="90" height="90" fill="none" xmlns="http://www.w3.org/2000/svg"><g clip-path="url(#a)"><path d="M38 26 53 0h23L63.886 20.997A10 10 0 0 1 55.224 26H38z" fill="#45753C"/><path d="M43 26 58 0h13L60.33 18.496A15 15 0 0 1 47.336 26H43z" fill="#305730"/><path fill-rule="evenodd" clip-rule="evenodd" d="M38.426 25.262a14.98 14.98 0 0 0 2.713.738h14.086c.844 0 1.674-.107 2.472-.31L47.979 8.703l-9.553 16.56z" fill="#204227"/><path fill-rule="evenodd" clip-rule="evenodd" d="M35 21a8 8 0 0 0-8 8v12h5V29a3 3 0 0 1 3-3h20a3 3 0 0 1 3 3v12h5V29a8 8 0 0 0-8-8H35z" fill="#CF8D1B"/><path d="m53 26-3-5h5a3.358 3.358 0 0 0-2.222 4.408L53 26z" fill="#99580E"/><path d="M53 26 38 0H15l12.114 20.997A10 10 0 0 0 35.776 26H53z" fill="#81B64C"/><path d="M48 26 33 0H20l15 26h13z" fill="#5D9948"/><path d="M45 90c16.569 0 30-13.126 30-29.318S61.569 31.364 45 31.364c-16.569 0-30 13.126-30 29.318S28.431 90 45 90z" fill="#CF8D1B"/><path d="M45 88c16.569 0 30-13.431 30-30 0-16.569-13.431-30-30-30-16.569 0-30 13.431-30 30 0 16.569 13.431 30 30 30z" fill="#FAD541"/><path fill-rule="evenodd" clip-rule="evenodd" d="M42 28.148v5.325c0 16.245-9.966 30.504-24.573 36.368A29.902 29.902 0 0 1 15 58c0-15.556 11.84-28.347 27-29.852z" fill="#FCE26A"/><path fill-rule="evenodd" clip-rule="evenodd" d="M43.316 28.046c-14.583.807-26.39 12.03-28.102 26.354a39.92 39.92 0 0 1 28.102-26.354zm6.92 59.498c11.698-2.059 21.06-10.895 23.886-22.31a39.928 39.928 0 0 1-23.886 22.31z" fill="#FFFFC7"/><path fill-rule="evenodd" clip-rule="evenodd" d="M69 58c0 13.255-10.745 24-24 24S21 71.255 21 58s10.745-24 24-24 24 10.745 24 24zm-4 0c0 11.045-8.954 20-20 20s-20-8.955-20-20c0-11.046 8.954-20 20-20s20 8.954 20 20z" fill="#E3AA24"/><path fill-rule="evenodd" clip-rule="evenodd" d="M55.465 75.047C61.185 71.527 65 65.209 65 58c0-.397-.012-.792-.034-1.183a57.118 57.118 0 0 1-9.501 18.23z" fill="#FCE26A"/></g><defs><clipPath id="a"><path fill="#fff" d="M0 0h90v90H0z"/></clipPath></defs></svg>